<svg width="176" height="36" viewBox="0 0 176 36" fill="none" xmlns="http://www.w3.org/2000/svg">
<path d="M53.5341 14.5625C53.4811 14.0663 53.2576 13.6799 52.8636 13.4034C52.4735 13.1269 51.9659 12.9886 51.3409 12.9886C50.9015 12.9886 50.5246 13.0549 50.2102 13.1875C49.8958 13.3201 49.6553 13.5 49.4886 13.7273C49.322 13.9545 49.2367 14.214 49.233 14.5057C49.233 14.7481 49.2879 14.9583 49.3977 15.1364C49.5114 15.3144 49.6648 15.4659 49.858 15.5909C50.0511 15.7121 50.2652 15.8144 50.5 15.8977C50.7348 15.9811 50.9716 16.0511 51.2102 16.108L52.3011 16.3807C52.7405 16.483 53.1629 16.6212 53.5682 16.7955C53.9773 16.9697 54.3428 17.1894 54.6648 17.4545C54.9905 17.7197 55.2481 18.0398 55.4375 18.4148C55.6269 18.7898 55.7216 19.2292 55.7216 19.733C55.7216 20.4148 55.5473 21.0152 55.1989 21.5341C54.8504 22.0492 54.3466 22.4527 53.6875 22.7443C53.0322 23.0322 52.2386 23.1761 51.3068 23.1761C50.4015 23.1761 49.6155 23.036 48.9489 22.7557C48.286 22.4754 47.767 22.0663 47.392 21.5284C47.0208 20.9905 46.8201 20.3352 46.7898 19.5625H48.8636C48.8939 19.9678 49.0189 20.3049 49.2386 20.5739C49.4583 20.8428 49.7443 21.0436 50.0966 21.1761C50.4527 21.3087 50.8504 21.375 51.2898 21.375C51.7481 21.375 52.1496 21.3068 52.4943 21.1705C52.8428 21.0303 53.1155 20.8371 53.3125 20.5909C53.5095 20.3409 53.6098 20.0492 53.6136 19.7159C53.6098 19.4129 53.5208 19.1629 53.3466 18.9659C53.1723 18.7652 52.928 18.5985 52.6136 18.4659C52.303 18.3295 51.9394 18.2083 51.5227 18.1023L50.1989 17.7614C49.2405 17.5152 48.483 17.142 47.9261 16.642C47.3731 16.1383 47.0966 15.4697 47.0966 14.6364C47.0966 13.9508 47.2822 13.3504 47.6534 12.8352C48.0284 12.3201 48.5379 11.9205 49.1818 11.6364C49.8258 11.3485 50.5549 11.2045 51.3693 11.2045C52.1951 11.2045 52.9186 11.3485 53.5398 11.6364C54.1648 11.9205 54.6553 12.3163 55.0114 12.8239C55.3674 13.3277 55.5511 13.9072 55.5625 14.5625H53.5341ZM58.7884 26.2727C58.508 26.2727 58.2486 26.25 58.0099 26.2045C57.7751 26.1629 57.5876 26.1136 57.4474 26.0568L57.9247 24.4545C58.224 24.5417 58.491 24.5833 58.7259 24.5795C58.9607 24.5758 59.1671 24.5019 59.3452 24.358C59.527 24.2178 59.6804 23.983 59.8054 23.6534L59.9815 23.1818L56.8168 14.2727H58.9986L61.0099 20.8636H61.1009L63.1179 14.2727H65.3054L61.8111 24.0568C61.6482 24.5189 61.4323 24.9148 61.1634 25.2443C60.8944 25.5777 60.5649 25.8314 60.1747 26.0057C59.7884 26.1837 59.3262 26.2727 58.7884 26.2727ZM73.6264 16.5795L71.7514 16.7841C71.6984 16.5947 71.6056 16.4167 71.473 16.25C71.3442 16.0833 71.17 15.9489 70.9503 15.8466C70.7306 15.7443 70.4616 15.6932 70.1435 15.6932C69.7154 15.6932 69.3556 15.786 69.0639 15.9716C68.776 16.1572 68.634 16.3977 68.6378 16.6932C68.634 16.947 68.7268 17.1534 68.9162 17.3125C69.1094 17.4716 69.4276 17.6023 69.8707 17.7045L71.3594 18.0227C72.1851 18.2008 72.7988 18.483 73.2003 18.8693C73.6056 19.2557 73.8101 19.7614 73.8139 20.3864C73.8101 20.9356 73.6491 21.4205 73.331 21.8409C73.0166 22.2576 72.5791 22.5833 72.0185 22.8182C71.4579 23.053 70.8139 23.1705 70.0866 23.1705C69.0185 23.1705 68.1586 22.947 67.5071 22.5C66.8556 22.0492 66.4673 21.4223 66.3423 20.6193L68.348 20.4261C68.4389 20.8201 68.6321 21.1174 68.9276 21.3182C69.223 21.5189 69.6075 21.6193 70.081 21.6193C70.5696 21.6193 70.9616 21.5189 71.2571 21.3182C71.5563 21.1174 71.706 20.8693 71.706 20.5739C71.706 20.3239 71.6094 20.1174 71.4162 19.9545C71.2268 19.7917 70.9313 19.6667 70.5298 19.5795L69.0412 19.267C68.2041 19.0928 67.5848 18.7992 67.1832 18.3864C66.7817 17.9697 66.5829 17.4432 66.5866 16.8068C66.5829 16.2689 66.7287 15.803 67.0241 15.4091C67.3234 15.0114 67.7382 14.7045 68.2685 14.4886C68.8026 14.2689 69.4181 14.1591 70.1151 14.1591C71.1378 14.1591 71.9427 14.3769 72.5298 14.8125C73.1207 15.2481 73.4863 15.8371 73.6264 16.5795ZM79.8679 14.2727V15.8636H74.8509V14.2727H79.8679ZM76.0895 12.1818H78.1463V20.375C78.1463 20.6515 78.188 20.8636 78.2713 21.0114C78.3584 21.1553 78.4721 21.2538 78.6122 21.3068C78.7524 21.3598 78.9077 21.3864 79.0781 21.3864C79.2069 21.3864 79.3243 21.3769 79.4304 21.358C79.5402 21.339 79.6236 21.322 79.6804 21.3068L80.027 22.9148C79.9171 22.9527 79.7599 22.9943 79.5554 23.0398C79.3546 23.0852 79.1084 23.1117 78.8168 23.1193C78.3016 23.1345 77.8376 23.0568 77.4247 22.8864C77.0118 22.7121 76.6842 22.4432 76.4418 22.0795C76.2031 21.7159 76.0857 21.2614 76.0895 20.7159V12.1818ZM85.358 23.1705C84.483 23.1705 83.7273 22.9886 83.0909 22.625C82.4583 22.2576 81.9716 21.7386 81.6307 21.0682C81.2898 20.3939 81.1193 19.6004 81.1193 18.6875C81.1193 17.7898 81.2898 17.0019 81.6307 16.3239C81.9754 15.642 82.4564 15.1117 83.0739 14.733C83.6913 14.3504 84.4167 14.1591 85.25 14.1591C85.7879 14.1591 86.2955 14.2462 86.7727 14.4205C87.2538 14.5909 87.678 14.8561 88.0455 15.2159C88.4167 15.5758 88.7083 16.0341 88.9205 16.5909C89.1326 17.1439 89.2386 17.803 89.2386 18.5682V19.1989H82.0852V17.8125H87.267C87.2633 17.4186 87.178 17.0682 87.0114 16.7614C86.8447 16.4508 86.6117 16.2064 86.3125 16.0284C86.017 15.8504 85.6723 15.7614 85.2784 15.7614C84.858 15.7614 84.4886 15.8636 84.1705 16.0682C83.8523 16.2689 83.6042 16.5341 83.4261 16.8636C83.2519 17.1894 83.1629 17.5473 83.1591 17.9375V19.1477C83.1591 19.6553 83.2519 20.0909 83.4375 20.4545C83.6231 20.8144 83.8826 21.0909 84.2159 21.2841C84.5492 21.4735 84.9394 21.5682 85.3864 21.5682C85.6856 21.5682 85.9564 21.5265 86.1989 21.4432C86.4413 21.3561 86.6515 21.2292 86.8295 21.0625C87.0076 20.8958 87.142 20.6894 87.233 20.4432L89.1534 20.6591C89.0322 21.1667 88.8011 21.6098 88.4602 21.9886C88.1231 22.3636 87.6913 22.6553 87.1648 22.8636C86.6383 23.0682 86.036 23.1705 85.358 23.1705ZM90.9787 23V14.2727H92.9446V15.7557H93.0469C93.2287 15.2557 93.5298 14.8655 93.9503 14.5852C94.3707 14.3011 94.8726 14.1591 95.456 14.1591C96.0469 14.1591 96.545 14.303 96.9503 14.5909C97.3594 14.875 97.6473 15.2633 97.8139 15.7557H97.9048C98.098 15.2708 98.4238 14.8845 98.8821 14.5966C99.3442 14.3049 99.8916 14.1591 100.524 14.1591C101.327 14.1591 101.982 14.4129 102.49 14.9205C102.998 15.428 103.251 16.1686 103.251 17.142V23H101.189V17.4602C101.189 16.9186 101.045 16.5227 100.757 16.2727C100.469 16.0189 100.117 15.892 99.7003 15.892C99.2041 15.892 98.8158 16.0473 98.5355 16.358C98.259 16.6648 98.1207 17.0644 98.1207 17.5568V23H96.1037V17.375C96.1037 16.9242 95.9673 16.5644 95.6946 16.2955C95.4257 16.0265 95.0734 15.892 94.6378 15.892C94.3423 15.892 94.0734 15.9678 93.831 16.1193C93.5885 16.267 93.3954 16.4773 93.2514 16.75C93.1075 17.0189 93.0355 17.3333 93.0355 17.6932V23H90.9787ZM109.398 23V11.3636H111.506V21.233H116.631V23H109.398ZM122.233 23.1705C121.358 23.1705 120.602 22.9886 119.966 22.625C119.333 22.2576 118.847 21.7386 118.506 21.0682C118.165 20.3939 117.994 19.6004 117.994 18.6875C117.994 17.7898 118.165 17.0019 118.506 16.3239C118.85 15.642 119.331 15.1117 119.949 14.733C120.566 14.3504 121.292 14.1591 122.125 14.1591C122.663 14.1591 123.17 14.2462 123.648 14.4205C124.129 14.5909 124.553 14.8561 124.92 15.2159C125.292 15.5758 125.583 16.0341 125.795 16.5909C126.008 17.1439 126.114 17.803 126.114 18.5682V19.1989H118.96V17.8125H124.142C124.138 17.4186 124.053 17.0682 123.886 16.7614C123.72 16.4508 123.487 16.2064 123.188 16.0284C122.892 15.8504 122.547 15.7614 122.153 15.7614C121.733 15.7614 121.364 15.8636 121.045 16.0682C120.727 16.2689 120.479 16.5341 120.301 16.8636C120.127 17.1894 120.038 17.5473 120.034 17.9375V19.1477C120.034 19.6553 120.127 20.0909 120.312 20.4545C120.498 20.8144 120.758 21.0909 121.091 21.2841C121.424 21.4735 121.814 21.5682 122.261 21.5682C122.561 21.5682 122.831 21.5265 123.074 21.4432C123.316 21.3561 123.527 21.2292 123.705 21.0625C123.883 20.8958 124.017 20.6894 124.108 20.4432L126.028 20.6591C125.907 21.1667 125.676 21.6098 125.335 21.9886C124.998 22.3636 124.566 22.6553 124.04 22.8636C123.513 23.0682 122.911 23.1705 122.233 23.1705ZM130.365 23.1761C129.812 23.1761 129.314 23.0777 128.871 22.8807C128.431 22.6799 128.083 22.3845 127.825 21.9943C127.571 21.6042 127.445 21.1231 127.445 20.5511C127.445 20.0587 127.536 19.6515 127.717 19.3295C127.899 19.0076 128.147 18.75 128.462 18.5568C128.776 18.3636 129.13 18.2178 129.524 18.1193C129.922 18.017 130.333 17.9432 130.757 17.8977C131.268 17.8447 131.683 17.7973 132.001 17.7557C132.32 17.7102 132.551 17.642 132.695 17.5511C132.842 17.4564 132.916 17.3106 132.916 17.1136V17.0795C132.916 16.6515 132.789 16.3201 132.536 16.0852C132.282 15.8504 131.916 15.733 131.439 15.733C130.935 15.733 130.536 15.8428 130.24 16.0625C129.948 16.2822 129.751 16.5417 129.649 16.8409L127.729 16.5682C127.88 16.0379 128.13 15.5947 128.479 15.2386C128.827 14.8788 129.253 14.6098 129.757 14.4318C130.261 14.25 130.818 14.1591 131.428 14.1591C131.848 14.1591 132.267 14.2083 132.683 14.3068C133.1 14.4053 133.481 14.5682 133.825 14.7955C134.17 15.0189 134.446 15.3239 134.655 15.7102C134.867 16.0966 134.973 16.5795 134.973 17.1591V23H132.996V21.8011H132.928C132.803 22.0436 132.626 22.2708 132.399 22.483C132.176 22.6913 131.893 22.8598 131.553 22.9886C131.215 23.1136 130.82 23.1761 130.365 23.1761ZM130.899 21.6648C131.312 21.6648 131.67 21.5833 131.973 21.4205C132.276 21.2538 132.509 21.0341 132.672 20.7614C132.839 20.4886 132.922 20.1913 132.922 19.8693V18.8409C132.857 18.8939 132.748 18.9432 132.592 18.9886C132.441 19.0341 132.27 19.0739 132.081 19.108C131.892 19.142 131.704 19.1723 131.518 19.1989C131.333 19.2254 131.172 19.2481 131.036 19.267C130.729 19.3087 130.454 19.3769 130.212 19.4716C129.969 19.5663 129.778 19.6989 129.638 19.8693C129.498 20.036 129.428 20.2519 129.428 20.517C129.428 20.8958 129.566 21.1818 129.842 21.375C130.119 21.5682 130.471 21.6648 130.899 21.6648ZM137.041 23V14.2727H139.036V15.7273H139.126C139.286 15.2235 139.558 14.8352 139.945 14.5625C140.335 14.286 140.78 14.1477 141.28 14.1477C141.393 14.1477 141.52 14.1534 141.661 14.1648C141.804 14.1723 141.924 14.1856 142.018 14.2045V16.0966C141.931 16.0663 141.793 16.0398 141.604 16.017C141.418 15.9905 141.238 15.9773 141.064 15.9773C140.689 15.9773 140.352 16.0587 140.053 16.2216C139.757 16.3807 139.524 16.6023 139.354 16.8864C139.183 17.1705 139.098 17.4981 139.098 17.8693V23H137.041ZM145.442 17.8864V23H143.385V14.2727H145.351V15.7557H145.453C145.654 15.267 145.974 14.8788 146.413 14.5909C146.857 14.303 147.404 14.1591 148.055 14.1591C148.658 14.1591 149.182 14.2879 149.629 14.5455C150.08 14.803 150.429 15.1761 150.675 15.6648C150.925 16.1534 151.048 16.7462 151.044 17.4432V23H148.987V17.7614C148.987 17.178 148.836 16.7216 148.533 16.392C148.233 16.0625 147.819 15.8977 147.288 15.8977C146.929 15.8977 146.608 15.9773 146.328 16.1364C146.052 16.2917 145.834 16.517 145.675 16.8125C145.519 17.108 145.442 17.4659 145.442 17.8864ZM153.135 23V14.2727H155.192V23H153.135ZM154.169 13.0341C153.843 13.0341 153.563 12.9261 153.328 12.7102C153.093 12.4905 152.976 12.2273 152.976 11.9205C152.976 11.6098 153.093 11.3466 153.328 11.1307C153.563 10.911 153.843 10.8011 154.169 10.8011C154.499 10.8011 154.779 10.911 155.01 11.1307C155.245 11.3466 155.362 11.6098 155.362 11.9205C155.362 12.2273 155.245 12.4905 155.01 12.7102C154.779 12.9261 154.499 13.0341 154.169 13.0341ZM159.364 17.8864V23H157.307V14.2727H159.273V15.7557H159.375C159.576 15.267 159.896 14.8788 160.335 14.5909C160.778 14.303 161.326 14.1591 161.977 14.1591C162.58 14.1591 163.104 14.2879 163.551 14.5455C164.002 14.803 164.35 15.1761 164.597 15.6648C164.847 16.1534 164.97 16.7462 164.966 17.4432V23H162.909V17.7614C162.909 17.178 162.758 16.7216 162.455 16.392C162.155 16.0625 161.741 15.8977 161.21 15.8977C160.85 15.8977 160.53 15.9773 160.25 16.1364C159.973 16.2917 159.756 16.517 159.597 16.8125C159.441 17.108 159.364 17.4659 159.364 17.8864ZM170.852 26.4545C170.114 26.4545 169.479 26.3542 168.949 26.1534C168.419 25.9564 167.992 25.6913 167.67 25.358C167.348 25.0246 167.125 24.6553 167 24.25L168.852 23.8011C168.936 23.9716 169.057 24.1402 169.216 24.3068C169.375 24.4773 169.589 24.6174 169.858 24.7273C170.131 24.8409 170.473 24.8977 170.886 24.8977C171.47 24.8977 171.953 24.7557 172.335 24.4716C172.718 24.1913 172.909 23.7292 172.909 23.0852V21.4318H172.807C172.701 21.6439 172.545 21.8617 172.341 22.0852C172.14 22.3087 171.873 22.4962 171.54 22.6477C171.21 22.7992 170.795 22.875 170.295 22.875C169.625 22.875 169.017 22.7178 168.472 22.4034C167.93 22.0852 167.498 21.6117 167.176 20.983C166.858 20.3504 166.699 19.5587 166.699 18.608C166.699 17.6496 166.858 16.8409 167.176 16.1818C167.498 15.5189 167.932 15.017 168.477 14.6761C169.023 14.3314 169.631 14.1591 170.301 14.1591C170.813 14.1591 171.233 14.2462 171.562 14.4205C171.896 14.5909 172.161 14.7973 172.358 15.0398C172.555 15.2784 172.705 15.5038 172.807 15.7159H172.92V14.2727H174.949V23.142C174.949 23.8883 174.771 24.5057 174.415 24.9943C174.059 25.483 173.572 25.8485 172.955 26.0909C172.337 26.3333 171.636 26.4545 170.852 26.4545ZM170.869 21.2614C171.305 21.2614 171.676 21.1553 171.983 20.9432C172.29 20.7311 172.523 20.4261 172.682 20.0284C172.841 19.6307 172.92 19.1534 172.92 18.5966C172.92 18.0473 172.841 17.5663 172.682 17.1534C172.527 16.7405 172.295 16.4205 171.989 16.1932C171.686 15.9621 171.313 15.8466 170.869 15.8466C170.411 15.8466 170.028 15.9659 169.722 16.2045C169.415 16.4432 169.184 16.7708 169.028 17.1875C168.873 17.6004 168.795 18.0701 168.795 18.5966C168.795 19.1307 168.873 19.5985 169.028 20C169.188 20.3977 169.42 20.7083 169.727 20.9318C170.038 21.1515 170.419 21.2614 170.869 21.2614Z" fill="black"/>
<g clip-path="url(#clip0_3016_20)">
<path d="M34.875 29.25C34.2 29.25 33.75 28.8 33.75 28.125V13.5C33.75 12.825 34.2 12.375 34.875 12.375C35.55 12.375 36 12.825 36 13.5V28.125C36 28.8 35.55 29.25 34.875 29.25Z" fill="black"/>
<path d="M18 23.625C17.775 23.625 17.6625 23.625 17.4375 23.5125L0.5625 14.5125C0.225 14.2875 0 13.95 0 13.5C0 13.05 0.225 12.7125 0.5625 12.4875L17.4375 3.48748C17.775 3.26248 18.1125 3.26248 18.45 3.48748L35.325 12.4875C35.6625 12.7125 35.8875 13.05 35.8875 13.5C35.8875 13.95 35.6625 14.2875 35.325 14.5125L18.45 23.5125C18.3375 23.625 18.225 23.625 18 23.625Z" fill="black"/>
<path d="M19.575 25.425C19.125 25.7625 18.5625 25.875 18 25.875C17.4375 25.875 16.875 25.7625 16.425 25.425L6.75 20.3625V24.75C6.75 28.2375 12.2625 31.5 18 31.5C23.7375 31.5 29.25 28.2375 29.25 24.75V20.3625L19.575 25.425Z" fill="black"/>
</g>
<defs>
<clipPath id="clip0_3016_20">
<rect width="36" height="36" fill="white"/>
</clipPath>
</defs>
</svg>
